<?xml version="1.0"?>
<svg width="48" height="57" xmlns="http://www.w3.org/2000/svg" xmlns:svg="http://www.w3.org/2000/svg" enable-background="new 0 0 230 57" version="1.1" xml:space="preserve">
 <style type="text/css">.st0 {
      fill: #373737;
    }

    .st1 {
      fill: url(#SVGID_1_);
    }</style>
 <g class="layer">
  <title>Layer 1</title>
  <g id="svg_1">
   <g id="svg_23">
    <g id="svg_24">
     <linearGradient gradientTransform="matrix(1 0 0 -1 0 58)" gradientUnits="userSpaceOnUse" id="SVGID_1_" x1="24.41" x2="24.41" y1="57.85" y2="1.44">
      <stop offset="0" stop-color="#01ADFF"/>
      <stop offset="1" stop-color="#6A37FF"/>
     </linearGradient>
     <path class="st1" d="m17.7,56.6c-2.9,0 -5.9,-0.7 -8.7,-2.2c-6,-3.2 -9.7,-9.3 -9.7,-16.2l0,-20.6c0,-6.9 3.9,-12.9 10.1,-15.8c6.3,-2.9 13.4,-1.8 18.6,2.7l12.9,11.1c4.5,4 6.9,9.7 6.5,15.7s-3.5,11.4 -8.5,14.7l-10.9,7.4c-3.2,2.2 -6.7,3.2 -10.3,3.2zm-13.3,-37.9l0,19.5c0,5 2.6,9.4 7.1,11.7c4.4,2.3 9.5,2.1 13.7,-0.7l10.9,-7.4c3.7,-2.5 5.9,-6.4 6.2,-10.9c0.3,-4.4 -1.5,-8.6 -4.8,-11.6l-12.8,-11c-3.7,-3.2 -8.7,-3.9 -13.1,-1.9c-0.7,0.3 -1.4,0.7 -2.1,1.2c2.8,-0.3 5.7,0.6 8,2.5l15.9,12.9c2.1,1.7 3.3,4.3 3.2,7.1s-1.5,5.2 -3.8,6.8l-10.5,7c-2.4,1.6 -5.5,1.8 -8.1,0.4c-2.6,-1.4 -4.2,-4 -4.2,-6.9l0,-19.5l18.8,15.1c0.1,0.1 0.2,0.1 0.2,0.2l0.8,-0.5c0.9,-0.6 1.5,-1.6 1.6,-2.8c0.1,-1.1 -0.4,-2.2 -1.3,-2.9l-15.8,-13c-1.9,-1.5 -4.3,-1.8 -6.4,-0.8c-2.2,1.1 -3.5,3.1 -3.5,5.5zm10.7,9.8l0,8.9c0,1 0.5,1.9 1.5,2.4c0.9,0.5 2,0.4 2.8,-0.1l5.3,-3.6l-9.6,-7.6z" id="svg_25"/>
    </g>
   </g>
  </g>
 </g>
</svg>